<?xml version="1.0" encoding="UTF-8"?>
<svg version="1.1" xmlns="http://www.w3.org/2000/svg" width="995" height="1241">
<path d="M0 0 C-2.98158248 1.98772166 -5.04303492 2.68634999 -8.46875 3.59375 C-9.58378906 3.89659912 -10.69882812 4.19944824 -11.84765625 4.51147461 C-13.65556641 5.00079468 -13.65556641 5.00079468 -15.5 5.5 C-64.88233172 19.26589948 -110.20667883 42.76093478 -150 75 C-150.52964355 75.4237793 -151.05928711 75.84755859 -151.60498047 76.28417969 C-160.17653197 83.18278068 -168.01846115 90.81127442 -175.8125 98.5625 C-176.30064178 99.04537476 -176.78878357 99.52824951 -177.29171753 100.02575684 C-183.99081092 106.66888465 -190.14252561 113.60174713 -196 121 C-196.92906822 122.13438883 -197.85972854 123.26747841 -198.79296875 124.3984375 C-211.1845867 139.80204742 -221.96531862 156.41909475 -231 174 C-231.66660645 175.29429932 -231.66660645 175.29429932 -232.34667969 176.61474609 C-267.6779147 246.00390709 -272.90964291 324.47607879 -249.30859375 398.3828125 C-237.05434005 435.39923307 -216.94270843 472.01538579 -190.23046875 500.59375 C-188.38676229 502.58275732 -186.61507171 504.60434593 -184.84765625 506.66015625 C-174.30895254 518.7393593 -162.71784723 530.23284273 -150 540 C-148.91221179 540.89592528 -147.82780533 541.7959661 -146.74609375 542.69921875 C-136.37867645 551.29759828 -125.33215699 558.73667945 -114 566 C-113.3512793 566.41846191 -112.70255859 566.83692383 -112.03417969 567.26806641 C-55.79606366 603.24736027 12.45263087 622.33423356 79 624 C79.8652832 624.02191406 80.73056641 624.04382812 81.62207031 624.06640625 C154.77241735 625.60156568 230.97364922 607.76283048 293 568 C293.72155273 567.53916016 294.44310547 567.07832031 295.18652344 566.60351562 C310.96495264 556.45491668 325.869767 545.33561785 340 533 C340.77859375 532.33355469 341.5571875 531.66710937 342.359375 530.98046875 C355.20385023 519.75262575 367.62540925 507.55747491 378 494 C378.81855469 492.99839844 379.63710938 491.99679687 380.48046875 490.96484375 C393.06383124 475.53094095 403.9023108 458.70351438 413 441 C413.4444043 440.13713379 413.88880859 439.27426758 414.34667969 438.38525391 C449.64577391 369.05921617 455.04120876 290.37636334 431.2734375 216.546875 C420.34959709 183.75033495 403.39873961 153.10237343 382 126 C381.28714844 125.09507812 380.57429687 124.19015625 379.83984375 123.2578125 C365.51839695 105.42546428 349.22054694 87.87048457 331 74 C329.67903515 72.94254101 328.36021583 71.88239902 327.04296875 70.8203125 C284.38464148 36.66327199 234.4913261 15.0619084 182 1 C182 0.67 182 0.34 182 0 C189.41993135 0.54720462 196.51035197 1.8071414 203.75 3.5 C204.86689209 3.76063232 205.98378418 4.02126465 207.13452148 4.28979492 C237.72510807 11.62198209 267.40813272 21.92199544 296 35 C296.94584961 35.43038574 297.89169922 35.86077148 298.86621094 36.30419922 C346.47613837 58.10453441 388.77044237 88.79477683 425.8125 125.6875 C427.01350342 126.88149414 427.01350342 126.88149414 428.23876953 128.09960938 C465.17030032 165.1311839 492.87397791 211.77353124 510 261 C510.43070801 262.22831543 510.43070801 262.22831543 510.87011719 263.48144531 C522.37553491 296.7208608 527.22873772 331.50893472 527.25 366.5625 C527.25101212 368.06340683 527.25101212 368.06340683 527.25204468 369.59463501 C527.23494856 385.58940872 526.59802618 401.18625823 524 417 C523.74259033 418.59884033 523.74259033 418.59884033 523.47998047 420.22998047 C513.3305996 481.47999743 486.33427856 538.63821658 446.53662109 586.15478516 C445.14789392 587.82240511 443.78379795 589.5065952 442.42578125 591.19921875 C435.46254859 599.74025512 427.70294666 607.50952724 419.9375 615.3125 C419.38268951 615.87257751 418.82787903 616.43265503 418.2562561 617.00970459 C411.15922473 624.15873798 403.89091216 630.72677767 396 637 C394.89809978 637.93469458 393.80177485 638.87606468 392.71484375 639.828125 C351.36466348 675.88594746 299.72514397 701.77802117 248 719 C246.91895996 719.36077637 245.83791992 719.72155273 244.72412109 720.09326172 C186.64483626 739.24115179 124.85391163 746.49100825 63.875 743.25 C63.05984924 743.20676605 62.24469849 743.1635321 61.40484619 743.11898804 C1.90444468 739.867659 -57.93181083 726.35949965 -112 701 C-113.53406494 700.2884375 -113.53406494 700.2884375 -115.09912109 699.5625 C-154.09451052 681.42565877 -189.7035261 658.42399501 -222 630 C-222.9384375 629.175 -223.876875 628.35 -224.84375 627.5 C-238.43694536 615.28139743 -251.7995502 602.4691525 -263 588 C-264.57965191 586.14269596 -266.16323257 584.28872867 -267.75 582.4375 C-317.43550462 522.75336442 -345.20048431 445.9987712 -345.25 368.5 C-345.25067474 367.54835968 -345.25134949 366.59671936 -345.25204468 365.61624146 C-345.17129213 293.62949739 -320.98665773 223.6743445 -278 166 C-277.60103516 165.46213867 -277.20207031 164.92427734 -276.79101562 164.37011719 C-264.39089048 147.72679302 -250.44604486 132.38374725 -235.8125 117.6875 C-235.06403809 116.93436523 -234.31557617 116.18123047 -233.54443359 115.40527344 C-228.85836322 110.73264798 -224.04344343 106.28361922 -219 102 C-218.36860107 101.46189697 -217.73720215 100.92379395 -217.08666992 100.36938477 C-200.90977358 86.68314176 -183.99589739 74.18881185 -166 63 C-165.40364746 62.62601074 -164.80729492 62.25202148 -164.19287109 61.86669922 C-119.92334513 34.20909283 -53.62432187 -1.22181999 0 0 Z " fill="#E3105B" transform="translate(395,484)"/>
<path d="M0 0 C8.11482323 1.43833552 15.96799846 3.56851633 23.875 5.875 C24.86543808 6.16312057 24.86543808 6.16312057 25.87588501 6.45706177 C43.07882081 11.47827835 60.05633776 17.17145989 77 23 C77.96773346 23.33224579 77.96773346 23.33224579 78.95501709 23.67120361 C156.20221361 50.22343716 234.96708187 85.40991849 306 145 C306.7940625 145.680625 307.588125 146.36125 308.40625 147.0625 C320.81849326 157.94446669 333.17062503 169.7024909 343 183 C343.69101807 183.93295898 343.69101807 183.93295898 344.39599609 184.88476562 C351.28301925 194.24422346 357.53836935 203.73075749 363 214 C363.32419922 214.59538574 363.64839844 215.19077148 363.98242188 215.80419922 C379.10037243 243.68989262 386.45416031 274.25638373 386.375 305.875 C386.37412384 306.73272003 386.37324768 307.59044006 386.37234497 308.47415161 C386.32476693 322.63874247 385.40910315 336.1982386 382 350 C381.75862305 350.98419922 381.51724609 351.96839844 381.26855469 352.98242188 C370.16837459 396.79671767 345.82652371 434.47824055 315 467 C314.26394531 467.78503906 313.52789062 468.57007813 312.76953125 469.37890625 C311 471 311 471 309 471 C306.06261526 460.48478759 304.34437498 449.95609657 303 439.125 C302.91719788 438.45950134 302.83439575 437.79400269 302.74908447 437.1083374 C302.41157143 434.3939559 302.07543486 431.67940777 301.74087524 428.96466064 C293.07915381 358.78788271 264.236474 296.53188272 216.1953125 244.40625 C214.3588622 242.39334362 212.57802679 240.34980355 210.80078125 238.28515625 C206.74625153 233.64073899 202.43157658 229.28445467 198.0625 224.9375 C197.30259766 224.17373047 196.54269531 223.40996094 195.75976562 222.62304688 C191.00521593 217.87661768 186.11829805 213.35181917 181 209 C181.42667969 209.74378906 181.85335937 210.48757813 182.29296875 211.25390625 C184.08613079 214.38546965 185.87395291 217.52001685 187.66064453 220.65527344 C188.58110551 222.26666739 189.50409791 223.87661714 190.42919922 225.48535156 C261.07383186 348.33960073 261.07383186 348.33960073 259 402 C258.67 402.99 258.34 403.98 258 405 C257.01 405.33 256.02 405.66 255 406 C251.3028741 403.97538344 248.39773131 401.4771522 245.3125 398.625 C238.47452632 392.43168377 230.8735314 387.19712154 223.42480469 381.77392578 C219.78138447 379.1084917 216.16979692 376.40152806 212.5625 373.6875 C211.57854248 372.94765869 211.57854248 372.94765869 210.57470703 372.19287109 C209.30810843 371.24028406 208.04166373 370.28749234 206.77539062 369.33447266 C204.12521679 367.34246906 201.46810631 365.35975288 198.8125 363.375 C189.08332293 356.07481693 179.45278669 348.6558512 170 341 C169.15179688 340.31550781 168.30359375 339.63101562 167.4296875 338.92578125 C144.14067716 320.01619122 122.06653256 300.06178838 104 276 C103.50564453 275.35144043 103.01128906 274.70288086 102.50195312 274.03466797 C60.28059932 218.46274107 34.85303078 149.93954756 17 83 C16.51370117 81.18628906 16.51370117 81.18628906 16.01757812 79.3359375 C11.65250282 62.89670651 7.92038543 46.36132277 4.5625 29.6875 C4.38887939 28.83192505 4.21525879 27.9763501 4.03637695 27.09484863 C2.21882353 18.09088174 0.49151587 9.19506837 0 0 Z " fill="#00A453" transform="translate(163,86)"/>
<path d="M0 0 C6.76039772 34.85132775 12.08790416 69.74605456 15.75 105.0625 C15.85105042 106.02257965 15.95210083 106.9826593 16.05621338 107.97183228 C19.0451653 136.66472239 20.3458581 165.25068435 20.26074219 194.08544922 C20.24930857 197.982782 20.25617032 201.87984264 20.26762009 205.77716637 C20.32938248 230.57926235 19.44920893 255.24876935 16.25 279.875 C16.16763092 280.51857452 16.08526184 281.16214905 16.00039673 281.82522583 C8.61604799 339.01959383 -8.04077039 398.24207373 -49.44189453 440.41113281 C-51.1099021 442.1120719 -52.75560716 443.83316259 -54.40234375 445.5546875 C-68.3257038 459.95762995 -84.12852196 470.92244198 -101.75 480.375 C-102.51779785 480.79201172 -103.2855957 481.20902344 -104.07666016 481.63867188 C-109.54795166 484.50832038 -115.03277729 486.41823226 -121 488 C-119.61122638 484.19118523 -117.82982432 481.02061552 -115.625 477.625 C-87.44847213 432.75520845 -73.46381777 379.55817816 -84.63427734 327.01660156 C-87.46063851 314.69102655 -90.97020078 302.61060374 -96 291 C-96.36689941 290.15002441 -96.73379883 289.30004883 -97.11181641 288.42431641 C-105.47839284 269.36432456 -116.11585855 251.58220192 -130 236 C-131.16789063 234.6696875 -131.16789063 234.6696875 -132.359375 233.3125 C-143.98076395 220.35289051 -156.15699727 207.59393381 -170 197 C-171.26052827 196.00960914 -172.51953743 195.01728297 -173.77734375 194.0234375 C-177.1768561 191.33856655 -180.58599418 188.6664133 -184 186 C-183.50724066 181.10959596 -181.0908726 177.76791852 -178.3125 173.875 C-177.82845703 173.18559326 -177.34441406 172.49618652 -176.84570312 171.78588867 C-175.24249251 169.51509589 -173.62343556 167.25637232 -172 165 C-171.15187744 163.81639893 -171.15187744 163.81639893 -170.28662109 162.60888672 C-163.68151286 153.42166393 -156.92728794 144.45200593 -149.5078125 135.90625 C-147.1292427 133.14977658 -144.83969364 130.34037057 -142.5625 127.5 C-138.69609833 122.7450895 -134.61471132 118.23338355 -130.42407227 113.765625 C-127.81808598 110.9859063 -125.2742969 108.17103089 -122.78930664 105.28222656 C-119.14159505 101.10609002 -115.30464063 97.15979895 -111.37890625 93.24609375 C-110.67531479 92.54154556 -109.97172333 91.83699738 -109.24681091 91.11109924 C-107.76985352 89.63346633 -106.29165258 88.15707543 -104.81225586 86.68188477 C-102.56834915 84.44333519 -100.32983296 82.19949527 -98.09179688 79.95507812 C-96.64615382 78.51009596 -95.20020055 77.06542408 -93.75390625 75.62109375 C-93.0953212 74.96048447 -92.43673615 74.29987518 -91.75819397 73.61924744 C-87.88786884 69.76805979 -83.91057632 66.09629007 -79.77227783 62.53416443 C-77.18390176 60.29354819 -74.69257834 57.95840164 -72.1875 55.625 C-67.56219047 51.35160029 -62.79918099 47.31116271 -57.890625 43.36328125 C-55.25314293 41.20696145 -52.67779111 38.99840112 -50.11035156 36.76025391 C-42.45050248 30.09398683 -34.4991862 23.88538886 -26.38134766 17.78857422 C-23.76493798 15.82345045 -21.15395273 13.85123228 -18.54296875 11.87890625 C-16.71647022 10.5021737 -14.8896528 9.12586411 -13.0625 7.75 C-12.19157715 7.09346436 -11.3206543 6.43692871 -10.42333984 5.76049805 C-9.61461426 5.15375244 -8.80588867 4.54700684 -7.97265625 3.921875 C-7.25343994 3.38143555 -6.53422363 2.84099609 -5.79321289 2.28417969 C-3.72782411 0.80508575 -2.56748064 0 0 0 Z " fill="#006E3E" transform="translate(647,13)"/>
</svg>
